<svg width="34" height="35" viewBox="0 0 34 35" fill="none" xmlns="http://www.w3.org/2000/svg">
<g id="Mask group">
<mask id="mask0_322_585" style="mask-type:alpha" maskUnits="userSpaceOnUse" x="2" y="3" width="30" height="29">
<g id="&#240;&#159;&#166;&#134; icon &#34;facebook&#34;">
<path id="Vector" d="M31.1666 17.2204C31.1666 9.40038 24.8199 3.05371 16.9999 3.05371C9.17992 3.05371 2.83325 9.40038 2.83325 17.2204C2.83325 24.077 7.70659 29.7862 14.1666 31.1037V21.4704H11.3333V17.2204H14.1666V13.6787C14.1666 10.9445 16.3908 8.72038 19.1249 8.72038H22.6666V12.9704H19.8333C19.0541 12.9704 18.4166 13.6079 18.4166 14.387V17.2204H22.6666V21.4704H18.4166V31.3162C25.5708 30.6079 31.1666 24.5729 31.1666 17.2204Z" fill="black"/>
</g>
</mask>
<g mask="url(#mask0_322_585)">
<circle id="Ellipse 16" cx="16.8721" cy="17.0928" r="24.9414" fill="#CAE7CF"/>
</g>
</g>
</svg>
