<svg width="28" height="34" viewBox="0 0 28 34" fill="none" xmlns="http://www.w3.org/2000/svg">
<g id="instagram 1" clip-path="url(#clip0_322_600)">
<path id="Vector" d="M14.0061 9.30815C10.0311 9.30815 6.8248 12.6146 6.8248 16.7138C6.8248 20.813 10.0311 24.1195 14.0061 24.1195C17.9811 24.1195 21.1873 20.813 21.1873 16.7138C21.1873 12.6146 17.9811 9.30815 14.0061 9.30815ZM14.0061 21.5285C11.4373 21.5285 9.3373 19.3693 9.3373 16.7138C9.3373 14.0583 11.4311 11.8992 14.0061 11.8992C16.5811 11.8992 18.6748 14.0583 18.6748 16.7138C18.6748 19.3693 16.5748 21.5285 14.0061 21.5285ZM23.1561 9.00522C23.1561 9.96558 22.4061 10.7326 21.4811 10.7326C20.5498 10.7326 19.8061 9.95913 19.8061 9.00522C19.8061 8.05132 20.5561 7.27788 21.4811 7.27788C22.4061 7.27788 23.1561 8.05132 23.1561 9.00522ZM27.9123 10.7583C27.8061 8.44448 27.2936 6.39487 25.6498 4.7062C24.0123 3.01753 22.0248 2.48901 19.7811 2.373C17.4686 2.23765 10.5373 2.23765 8.2248 2.373C5.9873 2.48257 3.9998 3.01108 2.35605 4.69976C0.712305 6.38843 0.206055 8.43804 0.0935547 10.7519C-0.0376953 13.1367 -0.0376953 20.2845 0.0935547 22.6693C0.199805 24.9832 0.712305 27.0328 2.35605 28.7214C3.9998 30.4101 5.98105 30.9386 8.2248 31.0546C10.5373 31.19 17.4686 31.19 19.7811 31.0546C22.0248 30.9451 24.0123 30.4166 25.6498 28.7214C27.2873 27.0328 27.7998 24.9832 27.9123 22.6693C28.0436 20.2845 28.0436 13.1431 27.9123 10.7583ZM24.9248 25.2281C24.4373 26.4914 23.4936 27.4646 22.2623 27.9738C20.4186 28.7279 16.0436 28.5539 14.0061 28.5539C11.9686 28.5539 7.5873 28.7214 5.7498 27.9738C4.5248 27.471 3.58105 26.4978 3.0873 25.2281C2.35605 23.3267 2.5248 18.815 2.5248 16.7138C2.5248 14.6126 2.3623 10.0945 3.0873 8.19956C3.5748 6.93628 4.51855 5.96304 5.7498 5.45386C7.59355 4.69976 11.9686 4.87378 14.0061 4.87378C16.0436 4.87378 20.4248 4.7062 22.2623 5.45386C23.4873 5.95659 24.4311 6.92983 24.9248 8.19956C25.6561 10.1009 25.4873 14.6126 25.4873 16.7138C25.4873 18.815 25.6561 23.3332 24.9248 25.2281Z" fill="#CAE7CF"/>
</g>
<defs>
<clipPath id="clip0_322_600">
<rect width="28" height="33" fill="white" transform="translate(0 0.220703)"/>
</clipPath>
</defs>
</svg>
