<svg width="24" height="25" viewBox="0 0 24 25" fill="none" xmlns="http://www.w3.org/2000/svg">
<g id="Mask group">
<mask id="mask0_322_582" style="mask-type:alpha" maskUnits="userSpaceOnUse" x="0" y="0" width="24" height="25">
<path id="Vector" d="M21.3331 12.2217H24C24 5.5945 18.6262 0.220703 11.999 0.220703V2.8876C17.1594 2.8876 21.3331 7.0613 21.3331 12.2217ZM15.9993 12.2217H18.6662C18.6662 8.54142 15.6793 5.5545 11.999 5.5545V8.2214C14.2125 8.2214 15.9993 10.0082 15.9993 12.2217ZM13.6124 19.3824C9.83877 17.4622 6.74517 14.3819 4.825 10.5949L8.19863 7.22131L7.38522 0.220703H0.0379202C-0.73548 13.7952 10.4255 24.9562 24 24.1828V16.8355L16.9727 16.0221L13.6124 19.3824Z" fill="black"/>
</mask>
<g mask="url(#mask0_322_582)">
<circle id="Ellipse 15" cx="11.8787" cy="12.1013" r="23.4763" fill="#CAE7CF"/>
</g>
</g>
</svg>
