<svg width="30" height="31" viewBox="0 0 30 31" fill="none" xmlns="http://www.w3.org/2000/svg">
<g id="twitter 1">
<path id="Vector" d="M26.9162 9.11039C26.9353 9.37687 26.9353 9.64342 26.9353 9.9099C26.9353 18.038 20.7488 27.4035 9.44162 27.4035C5.95811 27.4035 2.72209 26.3946 0 24.6434C0.494941 24.7005 0.970781 24.7195 1.48477 24.7195C4.35908 24.7195 7.00506 23.7487 9.11801 22.0927C6.41496 22.0355 4.14973 20.2652 3.36926 17.8287C3.75 17.8857 4.13068 17.9238 4.53047 17.9238C5.08248 17.9238 5.63455 17.8477 6.14848 17.7145C3.33123 17.1434 1.21822 14.6688 1.21822 11.6802V11.6041C2.03672 12.0609 2.98857 12.3465 3.99738 12.3845C2.34129 11.2804 1.25631 9.39592 1.25631 7.26393C1.25631 6.12182 1.56082 5.07486 2.09385 4.16115C5.12051 7.89211 9.67002 10.3286 14.7715 10.5952C14.6763 10.1383 14.6192 9.66246 14.6192 9.18656C14.6192 5.7982 17.3603 3.03809 20.7677 3.03809C22.538 3.03809 24.1369 3.78047 25.2601 4.97971C26.6496 4.71322 27.9821 4.19924 29.1623 3.49494C28.7054 4.92264 27.7346 6.12187 26.4593 6.88324C27.6966 6.75006 28.8959 6.40734 29.9999 5.9315C29.1625 7.14973 28.1154 8.23471 26.9162 9.11039Z" fill="#CAE7CF"/>
</g>
</svg>
